<?xml version="1.0" encoding="UTF-8"?>
<svg width="100pt" height="100pt" version="1.1" viewBox="0 0 100 100" xmlns="http://www.w3.org/2000/svg">
 <path d="m72.918 41.668c-2.082 0-3.957 0.41797-5.625 1.043l-4.793-7.918 1.457-3.543h0.625c1.25 0 2.082-0.83203 2.082-2.082s-0.83203-2.082-2.082-2.082h-6.25c-1.25 0-2.082 0.83203-2.082 2.082s0.83203 2.082 2.082 2.082h1.043l-0.83203 2.082h-18.961v-8.332h-10.418v4.168h6.25v5.832l-3.75 7.5c-1.457-0.625-2.9141-0.83203-4.582-0.83203-8.125 0-14.582 6.457-14.582 14.582s6.457 14.582 14.582 14.582 14.582-6.457 14.582-14.582c0-5-2.5-9.375-6.25-11.875l2.5-4.793 13.125 18.957h7.5c1.043 7.082 7.082 12.5 14.375 12.5 8.125 0 14.582-6.457 14.582-14.582 0.003906-8.332-6.4531-14.789-14.578-14.789zm-35.418 14.582c0 5.832-4.582 10.418-10.418 10.418-5.832 0-10.418-4.582-10.418-10.418 0-5.832 4.582-10.418 10.418-10.418 0.83203 0 1.875 0.20703 2.707 0.41797l-4.582 9.168c-0.20703 0.20703-0.20703 0.41406-0.20703 0.83203 0 1.25 0.83203 2.082 2.082 2.082 0.83203 0 1.457-0.41797 1.875-1.25l4.582-9.168c2.293 2.0859 3.9609 5.0039 3.9609 8.3359zm26.25-11.25c-2.707 2.293-4.582 5.418-5.207 9.168h-3.332l5.418-14.375zm2.082 3.543l3.332 5.625h-6.457c0.41797-2.293 1.668-4.168 3.125-5.625zm-14.375 3.332l-10-14.375h15.625zm21.461 14.793c-5 0-9.168-3.543-10.207-8.332l10.207-0.003907c1.25 0 2.082-0.83203 2.082-2.082 0-0.41797-0.20703-0.83203-0.41797-1.043l-5.207-8.75c1.043-0.41797 2.293-0.625 3.543-0.625 5.832 0 10.418 4.582 10.418 10.418-0.003907 5.832-4.5859 10.418-10.418 10.418z"/>
</svg>
